# Blender v2.78 (sub 0) OBJ File: 'table_smartuv.blend'
# www.blender.org
mtllib table.mtl
o Cube_Cube.001
v -7.901076 -0.503318 6.597807
v -7.901076 0.503318 6.597807
v -7.901076 -0.503318 -6.597807
v -7.901076 0.503318 -6.597807
v 7.901076 -0.503318 6.597807
v 7.901076 0.503318 6.597807
v 7.901076 -0.503318 -6.597807
v 7.901076 0.503318 -6.597807
v 6.862348 -0.503318 -6.597807
v -6.862348 -0.503318 -6.597807
v -6.862348 0.503318 -6.597807
v 6.862348 0.503318 -6.597807
v -6.862348 -0.503318 6.597807
v 6.862348 -0.503318 6.597807
v 6.862348 0.503318 6.597807
v -6.862348 0.503318 6.597807
v -7.901076 -0.503318 -5.730415
v -7.901076 -0.503318 5.730415
v -7.901076 0.503318 5.730415
v -7.901076 0.503318 -5.730415
v 7.901076 -0.503318 5.730415
v 7.901076 -0.503318 -5.730415
v 7.901076 0.503318 -5.730415
v 7.901076 0.503318 5.730415
v 6.862348 0.503318 -5.730415
v 6.862348 0.503318 5.730415
v -6.862348 0.503318 -5.730415
v -6.862348 0.503318 5.730415
v -6.862348 -0.503318 -5.730415
v -6.862348 -0.503318 5.730415
v 6.862348 -0.503318 -5.730415
v 6.862348 -0.503318 5.730415
v 5.878287 -0.503318 -6.597807
v -5.878107 -0.503318 -6.597807
v -5.878107 0.503318 -6.597807
v 5.878287 0.503318 -6.597807
v -5.878107 -0.503318 6.597807
v 5.878287 -0.503318 6.597807
v 5.878287 0.503318 6.597807
v -5.878107 0.503318 6.597807
v 5.878287 -0.503318 -5.730415
v -5.878107 -0.503318 -5.730415
v 5.878287 -0.503318 5.730415
v -5.878107 -0.503318 5.730415
v -5.878107 0.503318 -5.730415
v 5.878287 0.503318 -5.730415
v -5.878107 0.503318 5.730415
v 5.878287 0.503318 5.730415
v -7.901076 -0.503318 -4.908674
v -7.901076 -0.503318 4.908674
v -7.901076 0.503318 4.908674
v -7.901076 0.503318 -4.908674
v 7.901076 -0.503318 4.908674
v 7.901076 -0.503318 -4.908674
v 7.901076 0.503318 -4.908674
v 7.901076 0.503318 4.908674
v 6.862348 0.503318 -4.908674
v 6.862348 0.503318 4.908674
v -6.862348 0.503318 -4.908674
v -6.862348 0.503318 4.908674
v -6.862348 -0.503318 -4.908674
v -6.862348 -0.503318 4.908674
v 6.862348 -0.503318 -4.908674
v 6.862348 -0.503318 4.908674
v 5.878287 0.503318 -4.908674
v 5.878287 0.503318 4.908674
v -5.878107 0.503318 -4.908674
v -5.878107 0.503318 4.908674
v -5.878107 -0.503318 -4.908674
v -5.878107 -0.503318 4.908674
v 5.878287 -0.503318 -4.908674
v 5.878287 -0.503318 4.908674
v -6.862348 -6.254284 4.908674
v -6.862348 -6.254284 5.730415
v 6.862348 -6.254284 4.908674
v 6.862348 -6.254284 5.730415
v -5.878107 -6.254284 -5.730415
v -6.862348 -6.254284 -5.730415
v -5.878107 -6.254284 5.730415
v 6.862348 -6.254284 -5.730415
v 5.878287 -6.254284 -5.730415
v 5.878287 -6.254284 5.730415
v -5.878107 -6.254284 4.908674
v 5.878287 -6.254284 4.908674
v -6.862348 -6.254284 -4.908674
v 6.862348 -6.254284 -4.908674
v -5.878107 -6.254284 -4.908674
v 5.878287 -6.254284 -4.908674
vt 0.0000 0.5749
vt 0.0354 0.5449
vt 0.0354 0.5749
vt 0.9291 0.0358
vt 0.9646 0.0000
vt 0.9646 0.0358
vt 0.0709 0.9701
vt 0.0354 1.0000
vt 0.0354 0.9701
vt 1.0000 0.5091
vt 0.9646 0.5449
vt 0.9646 0.5091
vt 0.8986 0.0000
vt 0.9291 0.0358
vt 0.8986 0.0358
vt 0.0305 0.5449
vt 0.0000 0.5091
vt 0.0305 0.5091
vt 0.0305 0.0358
vt 0.0000 0.0000
vt 0.0305 0.0000
vt 0.0000 0.4752
vt 0.0305 0.4752
vt 0.8986 0.5091
vt 0.9291 0.5449
vt 0.8986 0.5449
vt 0.9291 0.0698
vt 0.8986 0.0698
vt 1.0000 0.0000
vt 0.9646 0.0358
vt 0.9646 0.0000
vt 1.0000 0.4752
vt 0.9646 0.4752
vt 0.9291 0.5449
vt 0.9646 0.5091
vt 0.9646 0.5449
vt 0.9291 0.0698
vt 0.9646 0.0698
vt 0.4646 0.0358
vt 0.4951 0.0698
vt 0.4646 0.0698
vt 0.2095 0.5449
vt 0.1748 0.7433
vt 0.1748 0.5449
vt 0.4646 0.5091
vt 0.4951 0.5449
vt 0.4646 0.5449
vt 0.8697 0.5091
vt 0.8697 0.5449
vt 0.4646 0.5091
vt 0.4340 0.4752
vt 0.4646 0.4752
vt 0.0595 0.5091
vt 0.0595 0.4752
vt 0.4646 0.0358
vt 0.4340 0.0000
vt 0.4646 0.0000
vt 0.0595 0.0358
vt 0.0595 0.0000
vt 0.4646 0.5449
vt 0.4340 0.5091
vt 0.0595 0.5449
vt 0.4646 0.0000
vt 0.4951 0.0358
vt 0.8697 0.0000
vt 0.8697 0.0358
vt 0.0709 0.5449
vt 0.0354 0.5749
vt 0.0354 0.5449
vt 0.0709 0.9417
vt 0.0354 0.9417
vt 0.0000 1.0000
vt 0.0354 0.9701
vt 0.0354 1.0000
vt 0.0000 0.6032
vt 0.0354 0.6032
vt 0.0595 0.0698
vt 0.0305 0.0698
vt 0.4646 0.0698
vt 0.4340 0.0358
vt 0.4340 0.0698
vt 0.5506 0.7433
vt 0.5795 0.5449
vt 0.5795 0.7433
vt 0.8697 0.0698
vt 0.8986 0.4752
vt 0.8697 0.4752
vt 0.4646 0.4752
vt 0.4951 0.5091
vt 0.4951 0.4752
vt 0.9291 0.5091
vt 0.9646 0.4752
vt 0.9291 0.4752
vt 1.0000 0.0358
vt 0.9646 0.0698
vt 1.0000 0.0698
vt 0.9291 0.5091
vt 0.9291 0.4752
vt 0.0000 0.0358
vt 0.0000 0.0698
vt 0.5240 0.4752
vt 0.5240 0.0698
vt 0.5216 0.7433
vt 0.5506 0.5449
vt 0.5506 0.7433
vt 0.5240 0.5091
vt 0.4051 0.0698
vt 0.4051 0.4752
vt 0.4051 0.0358
vt 0.0000 0.9701
vt 0.0354 0.9417
vt 0.0000 0.9417
vt 0.0709 0.5749
vt 0.0354 0.6032
vt 0.0709 0.6032
vt 0.4951 0.0000
vt 0.5240 0.0358
vt 0.5240 0.0000
vt 0.4340 0.5449
vt 0.4051 0.5091
vt 0.4051 0.5449
vt 0.4051 0.0000
vt 0.5240 0.5449
vt 0.2788 0.5449
vt 0.2441 0.7433
vt 0.2441 0.5449
vt 0.6084 0.5789
vt 0.6374 0.6128
vt 0.6084 0.6128
vt 0.5795 0.5789
vt 0.6084 0.6128
vt 0.5795 0.6128
vt 0.5795 0.5449
vt 0.6084 0.5789
vt 0.5795 0.5789
vt 0.6084 0.5449
vt 0.6374 0.5789
vt 0.6084 0.5789
vt 0.3770 0.5449
vt 0.3481 0.7433
vt 0.3481 0.5449
vt 0.1055 0.5449
vt 0.0709 0.7433
vt 0.0709 0.5449
vt 0.4638 0.5449
vt 0.4349 0.7433
vt 0.4349 0.5449
vt 0.1748 0.5449
vt 0.1402 0.7433
vt 0.1402 0.5449
vt 0.1402 0.5449
vt 0.1055 0.7433
vt 0.1055 0.5449
vt 0.4927 0.5449
vt 0.4638 0.7433
vt 0.4638 0.5449
vt 0.2441 0.5449
vt 0.2095 0.7433
vt 0.2095 0.5449
vt 0.5216 0.5449
vt 0.4927 0.7433
vt 0.4927 0.5449
vt 0.4059 0.5449
vt 0.3770 0.7433
vt 0.3770 0.5449
vt 0.3134 0.7433
vt 0.3134 0.5449
vt 0.4349 0.5449
vt 0.4059 0.7433
vt 0.4059 0.5449
vt 0.3134 0.5449
vt 0.2788 0.7433
vt 0.2788 0.5449
vt 0.0000 0.5449
vt 0.9291 0.0000
vt 0.0709 1.0000
vt 1.0000 0.5449
vt 0.9291 0.0000
vt 0.0000 0.5449
vt 0.2095 0.7433
vt 0.5506 0.5449
vt 0.5216 0.5449
vt 0.2788 0.7433
vt 0.6374 0.5789
vt 0.6084 0.5789
vt 0.6084 0.5449
vt 0.6374 0.5449
vt 0.3770 0.7433
vt 0.1055 0.7433
vt 0.4638 0.7433
vt 0.1748 0.7433
vt 0.1402 0.7433
vt 0.4927 0.7433
vt 0.2441 0.7433
vt 0.5216 0.7433
vt 0.4059 0.7433
vt 0.4349 0.7433
vt 0.3134 0.7433
vn -1.0000 0.0000 0.0000
vn 0.0000 0.0000 -1.0000
vn 1.0000 0.0000 0.0000
vn 0.0000 0.0000 1.0000
vn 0.0000 -1.0000 0.0000
vn 0.0000 1.0000 0.0000
usemtl None
s off
f 20/1/1 3/2/1 17/3/1
f 12/4/2 7/5/2 9/6/2
f 24/7/3 5/8/3 21/9/3
f 16/10/4 1/11/4 13/12/4
f 21/13/5 14/14/5 32/15/5
f 19/16/6 16/17/6 28/18/6
f 26/19/6 6/20/6 24/21/6
f 28/18/6 40/22/6 47/23/6
f 30/24/5 1/25/5 18/26/5
f 32/15/5 38/27/5 43/28/5
f 6/29/4 14/30/4 5/31/4
f 40/32/4 13/12/4 37/33/4
f 4/34/2 10/35/2 3/36/2
f 36/37/2 9/6/2 33/38/2
f 9/39/5 41/40/5 33/41/5
f 42/42/2 78/43/2 29/44/2
f 10/45/5 17/46/5 3/47/5
f 62/48/5 18/26/5 50/49/5
f 11/50/6 45/51/6 35/52/6
f 60/53/6 47/23/6 68/54/6
f 12/55/6 23/56/6 8/57/6
f 58/58/6 24/21/6 56/59/6
f 4/60/6 27/61/6 11/50/6
f 51/62/6 28/18/6 60/53/6
f 7/63/5 31/64/5 9/39/5
f 53/65/5 32/15/5 64/66/5
f 8/67/3 22/68/3 7/69/3
f 56/70/3 21/9/3 53/71/3
f 2/72/1 18/73/1 1/74/1
f 52/75/1 17/3/1 49/76/1
f 66/77/6 26/19/6 58/58/6
f 68/54/6 48/78/6 66/77/6
f 36/79/6 25/80/6 12/55/6
f 35/52/6 46/81/6 36/79/6
f 32/82/3 75/83/3 64/84/3
f 72/85/5 44/86/5 70/87/5
f 34/88/5 29/89/5 10/45/5
f 33/41/5 42/90/5 34/88/5
f 11/91/2 34/92/2 10/35/2
f 35/93/2 33/38/2 34/92/2
f 15/94/4 38/95/4 14/30/4
f 39/96/4 37/33/4 38/95/4
f 44/86/5 13/97/5 30/24/5
f 43/28/5 37/98/5 44/86/5
f 48/78/6 15/99/6 26/19/6
f 47/23/6 39/100/6 48/78/6
f 41/40/5 69/101/5 42/90/5
f 71/102/5 70/87/5 69/101/5
f 44/103/3 83/104/3 70/105/3
f 69/101/5 62/48/5 61/106/5
f 45/51/6 65/107/6 46/81/6
f 67/108/6 66/77/6 65/107/6
f 46/81/6 57/109/6 25/80/6
f 65/107/6 58/58/6 57/109/6
f 19/110/1 50/111/1 18/73/1
f 51/112/1 49/76/1 50/111/1
f 23/113/3 54/114/3 22/68/3
f 55/115/3 53/71/3 54/114/3
f 22/116/5 63/117/5 31/64/5
f 54/118/5 64/66/5 63/117/5
f 20/119/6 59/120/6 27/61/6
f 52/121/6 60/53/6 59/120/6
f 25/80/6 55/122/6 23/56/6
f 57/109/6 56/59/6 55/122/6
f 27/61/6 67/108/6 45/51/6
f 59/120/6 68/54/6 67/108/6
f 29/89/5 49/123/5 17/46/5
f 61/106/5 50/49/5 49/123/5
f 64/124/2 84/125/2 72/126/2
f 63/117/5 72/85/5 71/102/5
f 75/127/5 82/128/5 84/129/5
f 83/130/5 74/131/5 73/132/5
f 77/133/5 85/134/5 78/135/5
f 80/136/5 88/137/5 81/138/5
f 72/139/1 82/140/1 43/141/1
f 61/142/4 87/143/4 69/144/4
f 29/145/1 85/146/1 61/147/1
f 70/148/2 73/149/2 62/150/2
f 30/151/4 79/152/4 44/153/4
f 69/154/3 77/155/3 42/156/3
f 31/157/2 81/158/2 41/159/2
f 63/160/3 80/161/3 31/162/3
f 41/163/1 88/164/1 71/165/1
f 43/141/4 76/166/4 32/167/4
f 62/168/1 74/169/1 30/170/1
f 71/171/4 86/172/4 63/173/4
f 20/1/1 4/174/1 3/2/1
f 12/4/2 8/175/2 7/5/2
f 24/7/3 6/176/3 5/8/3
f 16/10/4 2/177/4 1/11/4
f 21/13/5 5/178/5 14/14/5
f 19/16/6 2/179/6 16/17/6
f 26/19/6 15/99/6 6/20/6
f 28/18/6 16/17/6 40/22/6
f 30/24/5 13/97/5 1/25/5
f 32/15/5 14/14/5 38/27/5
f 6/29/4 15/94/4 14/30/4
f 40/32/4 16/10/4 13/12/4
f 4/34/2 11/91/2 10/35/2
f 36/37/2 12/4/2 9/6/2
f 9/39/5 31/64/5 41/40/5
f 42/42/2 77/180/2 78/43/2
f 10/45/5 29/89/5 17/46/5
f 62/48/5 30/24/5 18/26/5
f 11/50/6 27/61/6 45/51/6
f 60/53/6 28/18/6 47/23/6
f 12/55/6 25/80/6 23/56/6
f 58/58/6 26/19/6 24/21/6
f 4/60/6 20/119/6 27/61/6
f 51/62/6 19/16/6 28/18/6
f 7/63/5 22/116/5 31/64/5
f 53/65/5 21/13/5 32/15/5
f 8/67/3 23/113/3 22/68/3
f 56/70/3 24/7/3 21/9/3
f 2/72/1 19/110/1 18/73/1
f 52/75/1 20/1/1 17/3/1
f 66/77/6 48/78/6 26/19/6
f 68/54/6 47/23/6 48/78/6
f 36/79/6 46/81/6 25/80/6
f 35/52/6 45/51/6 46/81/6
f 32/82/3 76/181/3 75/83/3
f 72/85/5 43/28/5 44/86/5
f 34/88/5 42/90/5 29/89/5
f 33/41/5 41/40/5 42/90/5
f 11/91/2 35/93/2 34/92/2
f 35/93/2 36/37/2 33/38/2
f 15/94/4 39/96/4 38/95/4
f 39/96/4 40/32/4 37/33/4
f 44/86/5 37/98/5 13/97/5
f 43/28/5 38/27/5 37/98/5
f 48/78/6 39/100/6 15/99/6
f 47/23/6 40/22/6 39/100/6
f 41/40/5 71/102/5 69/101/5
f 71/102/5 72/85/5 70/87/5
f 44/103/3 79/182/3 83/104/3
f 69/101/5 70/87/5 62/48/5
f 45/51/6 67/108/6 65/107/6
f 67/108/6 68/54/6 66/77/6
f 46/81/6 65/107/6 57/109/6
f 65/107/6 66/77/6 58/58/6
f 19/110/1 51/112/1 50/111/1
f 51/112/1 52/75/1 49/76/1
f 23/113/3 55/115/3 54/114/3
f 55/115/3 56/70/3 53/71/3
f 22/116/5 54/118/5 63/117/5
f 54/118/5 53/65/5 64/66/5
f 20/119/6 52/121/6 59/120/6
f 52/121/6 51/62/6 60/53/6
f 25/80/6 57/109/6 55/122/6
f 57/109/6 58/58/6 56/59/6
f 27/61/6 59/120/6 67/108/6
f 59/120/6 60/53/6 68/54/6
f 29/89/5 61/106/5 49/123/5
f 61/106/5 62/48/5 50/49/5
f 64/124/2 75/183/2 84/125/2
f 63/117/5 64/66/5 72/85/5
f 75/127/5 76/184/5 82/128/5
f 83/130/5 79/185/5 74/131/5
f 77/133/5 87/186/5 85/134/5
f 80/136/5 86/187/5 88/137/5
f 72/139/1 84/188/1 82/140/1
f 61/142/4 85/189/4 87/143/4
f 29/145/1 78/190/1 85/146/1
f 70/148/2 83/191/2 73/149/2
f 30/151/4 74/192/4 79/152/4
f 69/154/3 87/193/3 77/155/3
f 31/157/2 80/194/2 81/158/2
f 63/160/3 86/195/3 80/161/3
f 41/163/1 81/196/1 88/164/1
f 43/141/4 82/140/4 76/166/4
f 62/168/1 73/197/1 74/169/1
f 71/171/4 88/198/4 86/172/4
