# Blender v2.78 (sub 0) OBJ File: ''
# www.blender.org
mtllib test_2.mtl
o Cube_Cube.001
v -1.000000 -1.000000 1.000000
v -1.000000 1.000000 1.000000
v -1.000000 -1.000000 -1.000000
v -1.000000 1.000000 -1.000000
v 1.000000 -1.000000 1.000000
v 1.000000 1.000000 1.000000
v 1.000000 -1.000000 -1.000000
v 1.000000 1.000000 -1.000000
vt 0.4909 0.3243
vt 0.7128 0.2519
vt 0.6842 0.5391
vt 0.5118 0.4402
vt 0.4914 0.7345
vt 0.2960 0.5418
vt 0.0001 0.5418
vt 0.0001 0.2459
vt 0.2960 0.2459
vt 0.5014 0.0001
vt 0.9713 0.5677
vt 0.9999 0.2805
vn -1.0000 0.0000 0.0000
vn 0.0000 0.0000 -1.0000
vn 1.0000 0.0000 0.0000
vn 0.0000 0.0000 1.0000
vn 0.0000 -1.0000 0.0000
vn 0.0000 1.0000 0.0000
usemtl None
s off
f 1/1/1 2/2/1 4/3/1 3/4/1
f 3/4/2 4/3/2 8/5/2 7/6/2
f 7/6/3 8/7/3 6/8/3 5/9/3
f 5/9/4 6/10/4 2/2/4 1/1/4
f 3/4/5 7/6/5 5/9/5 1/1/5
f 8/11/6 4/3/6 2/2/6 6/12/6
